<svg xmlns="http://www.w3.org/2000/svg" viewBox="0 0 512 512" width="512" height="512">
  <defs>
    <clipPath id="tile"><rect x="16" y="16" width="480" height="480" rx="108"/></clipPath>
    <pattern id="argyle" width="120" height="160" patternUnits="userSpaceOnUse">
      <rect width="120" height="160" fill="#07140F"/>
      <polygon points="60,0 120,80 60,160 0,80" fill="#1C4D3C"/>
      <polygon points="0,0 60,80 0,160" fill="#123026"/>
      <polygon points="120,0 60,80 120,160" fill="#123026"/>
      <g stroke="#56AB7B" stroke-width="2" opacity="0.30" stroke-dasharray="6 7">
        <path d="M60 -80 L200 80 M60 -80 L-80 80 M60 80 L200 240 M60 80 L-80 240 M60 240 L200 400 M60 240 L-80 400"/>
      </g>
    </pattern>
  </defs>
  <g clip-path="url(#tile)"><rect x="16" y="16" width="480" height="480" fill="url(#argyle)"/></g>
  <rect x="16" y="16" width="480" height="480" rx="108" fill="none" stroke="#2BD3D3" stroke-width="6"/>
  <g transform="translate(142.0 142.0) scale(9.5)" fill="#56AB7B"><path d="M12.597 13.693v2.156h6.205v-2.156ZM5.183 6.549v2.363l3.591 1.901.023.01-.023.009-3.591 1.901v2.35l.386-.211 5.456-2.969V9.729ZM3.659 2.037C1.915 2.037.42 3.41.42 5.154v.002L.438 18.73 0 21.963l5.956-1.583h14.806c1.744 0 3.238-1.374 3.238-3.118V5.154c0-1.744-1.493-3.116-3.237-3.117h-.001zm0 2.2h17.104c.613.001 1.037.447 1.037.917v12.108c0 .47-.424.916-1.038.916H5.633l-3.026.915.031-.179-.017-13.76c0-.47.424-.917 1.038-.917z"/></g>
</svg>
